<svg width="701" height="522" viewBox="0 0 701 522" fill="none" xmlns="http://www.w3.org/2000/svg">
<path d="M700.172 458.472H0V458.822H700.172V458.472Z" fill="#EBEBEB"/>
<path d="M630.016 481.004H583.637V481.354H630.016V481.004Z" fill="#EBEBEB"/>
<path d="M463.821 484.813H451.652V485.163H463.821V484.813Z" fill="#EBEBEB"/>
<path d="M582.236 468.009H555.363V468.359H582.236V468.009Z" fill="#EBEBEB"/>
<path d="M133.944 470.361H73.4629V470.712H133.944V470.361Z" fill="#EBEBEB"/>
<path d="M155.286 470.361H146.422V470.712H155.286V470.361Z" fill="#EBEBEB"/>
<path d="M315.288 476.271H184.104V476.621H315.288V476.271Z" fill="#EBEBEB"/>
<path d="M331.882 396.017H61.4898C59.3715 396.014 57.3413 395.169 55.8448 393.67C54.3483 392.171 53.5078 390.14 53.5078 388.021V7.92595C53.5263 5.81986 54.3749 3.8061 55.8694 2.32208C57.3639 0.838047 59.3836 0.00360783 61.4898 0H331.882C334.003 0 336.037 0.84243 337.536 2.34196C339.036 3.8415 339.878 5.8753 339.878 7.99596V388.021C339.878 390.142 339.036 392.176 337.536 393.675C336.037 395.175 334.003 396.017 331.882 396.017ZM61.4898 0.28007C59.4644 0.283779 57.5232 1.09096 56.0924 2.52444C54.6615 3.95792 53.8579 5.90056 53.8579 7.92595V388.021C53.8579 390.047 54.6615 391.989 56.0924 393.423C57.5232 394.856 59.4644 395.663 61.4898 395.667H331.882C333.909 395.663 335.852 394.857 337.285 393.424C338.718 391.991 339.524 390.048 339.528 388.021V7.92595C339.524 5.89927 338.718 3.95666 337.285 2.52358C335.852 1.0905 333.909 0.283772 331.882 0.28007H61.4898Z" fill="#EBEBEB"/>
<path d="M634.791 396.017H364.385C362.265 396.014 360.233 395.17 358.735 393.671C357.236 392.172 356.392 390.141 356.389 388.021V7.92595C356.411 5.81859 357.263 3.80484 358.759 2.3212C360.256 0.837558 362.277 0.00356848 364.385 0H634.791C636.895 0.00728808 638.911 0.843356 640.402 2.32699C641.894 3.81063 642.741 5.82228 642.759 7.92595V388.021C642.759 390.137 641.92 392.167 640.427 393.665C638.933 395.164 636.907 396.01 634.791 396.017ZM364.385 0.28007C362.358 0.283772 360.415 1.0905 358.982 2.52358C357.549 3.95666 356.742 5.89927 356.739 7.92595V388.021C356.742 390.048 357.549 391.991 358.982 393.424C360.415 394.857 362.358 395.663 364.385 395.667H634.791C636.818 395.663 638.76 394.857 640.193 393.424C641.626 391.991 642.433 390.048 642.437 388.021V7.92595C642.433 5.89927 641.626 3.95666 640.193 2.52358C638.76 1.0905 636.818 0.283772 634.791 0.28007H364.385Z" fill="#EBEBEB"/>
<path d="M305.905 323.297H128.873V335.788H305.905V323.297Z" fill="#EBEBEB"/>
<path d="M305.905 323.297H228.928V335.788H305.905V323.297Z" fill="#E0E0E0"/>
<path d="M155.031 335.789H128.873V458.473H155.031V335.789Z" fill="#EBEBEB"/>
<path d="M155.031 348.448L128.873 339.541V335.789H155.031V348.448Z" fill="#E0E0E0"/>
<path d="M305.906 335.789H279.748V458.473H305.906V335.789Z" fill="#E0E0E0"/>
<path d="M255.086 335.789H228.928V458.473H255.086V335.789Z" fill="#EBEBEB"/>
<path d="M255.072 348.448L228.928 339.541V335.789H255.072V348.448Z" fill="#E0E0E0"/>
<path d="M205.85 335.789H179.691V458.473H205.85V335.789Z" fill="#E0E0E0"/>
<path d="M322.541 45.0491H99.4238V235.034H322.541V45.0491Z" fill="#EBEBEB"/>
<path d="M322.543 235.02H325.035V45.0351H322.543V235.02Z" fill="#E0E0E0"/>
<path d="M314.154 226.618V53.4371L107.842 53.4371V226.618H314.154Z" fill="#F5F5F5"/>
<path d="M208.498 200.333C221.101 158.323 224.602 96.3576 251.405 104.9C278.207 113.442 243.101 205.066 243.101 205.066L208.498 200.333Z" fill="white"/>
<path d="M230.147 202.42C217.32 141.533 220.555 60.7049 180.701 62.5534C140.847 64.4018 180.701 205.066 180.701 205.066L230.147 202.42Z" fill="white"/>
<path d="M258.308 195.586H171.052C169.272 195.529 167.54 196.173 166.231 197.381C164.921 198.589 164.138 200.262 164.051 202.042C162.272 242.232 168.854 283.262 181.107 323.297H247.917C260.17 283.192 266.752 242.232 264.974 202.042C264.905 200.315 264.175 198.681 262.933 197.479C261.692 196.277 260.036 195.599 258.308 195.586Z" fill="#EBEBEB"/>
<path d="M456.792 66.2363H451.877V458.473H456.792V66.2363Z" fill="#E0E0E0"/>
<path d="M572.308 66.2363H567.393V458.473H572.308V66.2363Z" fill="#E0E0E0"/>
<path d="M421.937 66.2363H417.021V458.473H421.937V66.2363Z" fill="#EBEBEB"/>
<path d="M537.452 66.2363H532.537V458.473H537.452V66.2363Z" fill="#EBEBEB"/>
<path d="M572.306 63.5477H417.021V68.911H572.306V63.5477Z" fill="#EBEBEB"/>
<path d="M572.306 159.597H417.021V164.961H572.306V159.597Z" fill="#EBEBEB"/>
<path d="M572.306 255.647H417.021V261.01H572.306V255.647Z" fill="#EBEBEB"/>
<path d="M572.306 351.696H417.021V357.06H572.306V351.696Z" fill="#EBEBEB"/>
<path d="M572.306 447.746H417.021V453.109H572.306V447.746Z" fill="#EBEBEB"/>
<path d="M572.308 63.5477H537.453V68.911H572.308V63.5477Z" fill="#E0E0E0"/>
<path d="M572.308 159.597H537.453V164.961H572.308V159.597Z" fill="#E0E0E0"/>
<path d="M572.308 255.647H537.453V261.01H572.308V255.647Z" fill="#E0E0E0"/>
<path d="M572.308 351.696H537.453V357.06H572.308V351.696Z" fill="#E0E0E0"/>
<path d="M572.308 447.746H537.453V453.109H572.308V447.746Z" fill="#E0E0E0"/>
<path d="M479.658 96.2176V88.6557H460.992V96.2176C460.992 98.5883 460.051 100.862 458.376 102.54C456.701 104.218 454.428 105.162 452.058 105.166C449.687 105.166 447.413 106.107 445.735 107.782C444.057 109.457 443.113 111.729 443.109 114.1V159.639H497.555V114.1C497.551 111.729 496.607 109.457 494.929 107.782C493.251 106.107 490.977 105.166 488.607 105.166C486.233 105.166 483.957 104.223 482.279 102.545C480.601 100.867 479.658 98.5908 479.658 96.2176Z" fill="#F0F0F0"/>
<path d="M518.296 224.419H436.488V255.661H518.296V224.419Z" fill="#F0F0F0"/>
<path d="M518.296 255.647H532.537V224.405H518.296V255.647Z" fill="#E6E6E6"/>
<path d="M518.296 241.755H532.537V238.31H518.296V241.755Z" fill="#EBEBEB"/>
<path d="M518.296 238.31H436.488V241.755H518.296V238.31Z" fill="#F5F5F5"/>
<path d="M496.38 392.516H432.482V447.746H496.38V392.516Z" fill="#F0F0F0"/>
<path d="M496.379 447.76H507.498V392.53H496.379V447.76Z" fill="#E6E6E6"/>
<path d="M496.379 423.184H507.498V417.092H496.379V423.184Z" fill="#EBEBEB"/>
<path d="M496.38 417.092H432.482V423.184H496.38V417.092Z" fill="#F5F5F5"/>
<path d="M496.379 412.821H507.498V410.651H496.379V412.821Z" fill="#EBEBEB"/>
<path d="M496.38 410.651H432.482V412.821H496.38V410.651Z" fill="#F5F5F5"/>
<path d="M448.055 295.543H436.488V351.696H448.055V295.543Z" fill="#F0F0F0"/>
<path d="M448.055 315.554H436.488V331.686H448.055V315.554Z" fill="#FAFAFA"/>
<path d="M448.055 351.71H487.404V295.557H448.055V351.71Z" fill="#E6E6E6"/>
<path d="M465.923 288.289H452.857V351.696H465.923V288.289Z" fill="#EBEBEB"/>
<path d="M465.923 308.44H452.857V318.2H465.923V308.44Z" fill="#FAFAFA"/>
<path d="M465.923 324.74H452.857V334.5H465.923V324.74Z" fill="#FAFAFA"/>
<path d="M465.938 351.696H510.371V288.289H465.938V351.696Z" fill="#E0E0E0"/>
<path d="M480.471 295.543H473.428V351.696H480.471V295.543Z" fill="#F0F0F0"/>
<path d="M479.254 302.656H474.633V344.583H479.254V302.656Z" fill="#FAFAFA"/>
<path d="M480.459 351.71H504.391V295.557H480.459V351.71Z" fill="#E6E6E6"/>
<path d="M499.28 292.588H491.326V351.696H499.28V292.588Z" fill="#EBEBEB"/>
<path d="M499.28 311.366H491.326V320.469H499.28V311.366Z" fill="#FAFAFA"/>
<path d="M499.28 326.574H491.326V335.676H499.28V326.574Z" fill="#FAFAFA"/>
<path d="M499.278 351.696H526.305V292.588H499.278V351.696Z" fill="#E0E0E0"/>
<path d="M495.661 219.317C502.464 212.514 502.464 201.484 495.661 194.681C488.858 187.878 477.828 187.878 471.025 194.681C464.222 201.484 464.222 212.514 471.025 219.317C477.828 226.12 488.858 226.12 495.661 219.317Z" fill="#F5F5F5"/>
<path d="M504.561 224.224C511.141 223.156 515.61 216.956 514.541 210.375C513.473 203.795 507.273 199.326 500.692 200.394C494.112 201.462 489.643 207.663 490.711 214.243C491.78 220.824 497.98 225.292 504.561 224.224Z" fill="#EBEBEB"/>
<path d="M350.513 521.712C500.465 521.712 622.025 514.615 622.025 505.86C622.025 497.106 500.465 490.008 350.513 490.008C200.56 490.008 79 497.106 79 505.86C79 514.615 200.56 521.712 350.513 521.712Z" fill="#F5F5F5"/>
<path d="M260.373 397.263H440.233V490.12C440.233 491.31 439.999 492.488 439.544 493.587C439.088 494.687 438.421 495.685 437.58 496.527C436.738 497.368 435.739 498.035 434.64 498.491C433.541 498.946 432.363 499.18 431.173 499.18H269.433C268.243 499.18 267.065 498.946 265.966 498.491C264.867 498.035 263.868 497.368 263.027 496.527C262.185 495.685 261.518 494.687 261.063 493.587C260.607 492.488 260.373 491.31 260.373 490.12V397.263Z" fill="#EBEBEB"/>
<path d="M260.374 397.263H387.651L371.995 377.225C370.273 375.026 366.016 373.248 362.473 373.248H248.009C244.48 373.248 242.996 375.026 244.718 377.225L260.374 397.263Z" fill="#EBEBEB"/>
<path opacity="0.2" d="M260.374 397.263H387.651L371.995 377.225C370.273 375.026 366.016 373.248 362.473 373.248H248.009C244.48 373.248 242.996 375.026 244.718 377.225L260.374 397.263Z" fill="#E2E8F0"/>
<path d="M440.234 397.264H312.971L328.627 384.198C330.349 382.798 334.606 381.608 338.149 381.608H452.599C456.142 381.608 457.612 382.77 455.89 384.198L440.234 397.264Z" fill="#EBEBEB"/>
<path opacity="0.2" d="M312.971 397.263H440.234V490.12C440.234 491.31 440 492.488 439.544 493.587C439.089 494.687 438.422 495.685 437.58 496.527C436.739 497.368 435.74 498.035 434.641 498.491C433.542 498.946 432.364 499.18 431.174 499.18H322.031C320.841 499.18 319.663 498.946 318.564 498.491C317.464 498.035 316.466 497.368 315.624 496.527C314.783 495.685 314.116 494.687 313.66 493.587C313.205 492.488 312.971 491.31 312.971 490.12V397.263Z" fill="white"/>
<path opacity="0.5" d="M276.172 397.263V460.951L280.569 457.478L283.664 460.951L286.352 457.086L289.111 460.951L292.948 458.052L297.177 460.951V397.263H276.172Z" fill="white"/>
<path d="M299.301 307.922L373.911 214.673L274.571 131.268L208.754 206.789L198.952 225.679C198.465 226.216 198.095 226.847 197.863 227.533C197.631 228.219 197.543 228.945 197.605 229.667C197.667 230.388 197.877 231.089 198.222 231.726C198.567 232.363 199.039 232.921 199.61 233.367L289.232 308.622C290.69 309.796 292.537 310.376 294.404 310.246C296.271 310.117 298.02 309.286 299.301 307.922Z" fill="#EBEBEB"/>
<path opacity="0.5" d="M248.133 239.151L237.393 256.445L241.72 257.383L243.19 261.388L246.061 261.556L247.391 264.987L250.906 266.009L253.609 270.308L264.349 253.014L248.133 239.151Z" fill="white"/>
<path opacity="0.1" d="M370.663 211.942L303.754 286.58L208.713 206.789L274.571 131.268L370.663 211.942Z" fill="#E2E8F0"/>
<path d="M370.662 211.942L303.754 286.58L331.453 288.625L397.325 213.104L370.662 211.942Z" fill="#EBEBEB"/>
<path opacity="0.3" d="M370.662 211.942L303.754 286.58L331.453 288.625L397.325 213.104L370.662 211.942Z" fill="#E2E8F0"/>
<path d="M247.922 130.092L181 204.744L208.713 206.789L274.571 131.268L247.922 130.092Z" fill="#EBEBEB"/>
<path opacity="0.4" d="M247.922 130.092L181 204.744L208.713 206.789L274.571 131.268L247.922 130.092Z" fill="#E2E8F0"/>
<path opacity="0.1" d="M350.063 234.922L370.662 211.942L274.57 131.268L262.275 160.899L350.063 234.922Z" fill="#E2E8F0"/>
<path opacity="0.2" d="M208.713 206.789L274.571 131.268L262.276 160.899L215.897 212.824L208.713 206.789Z" fill="#E2E8F0"/>
<path d="M393.867 71.4175C394.133 72.3137 393.867 73.1959 393.278 73.3639C392.69 73.532 392.004 72.9438 391.738 72.0476C391.472 71.1514 391.738 70.2692 392.326 70.0871C392.914 69.9051 393.615 70.5212 393.867 71.4175Z" fill="#929596"/>
<path d="M393.966 73.1818C393.702 76.263 393.014 79.293 391.922 82.186C392.671 82.4457 393.467 82.5389 394.255 82.4591C395.044 82.3793 395.805 82.1284 396.487 81.7239L393.966 73.1818Z" fill="#ED847E"/>
<path d="M395.729 65.438C395.848 65.3696 395.938 65.26 395.981 65.1299C396.008 65.062 396.02 64.9895 396.017 64.9167C396.014 64.844 395.997 64.7726 395.965 64.707C395.934 64.6414 395.889 64.5829 395.834 64.5352C395.779 64.4875 395.715 64.4516 395.645 64.4297C394.825 64.1152 393.941 64.0031 393.068 64.1031C392.196 64.203 391.36 64.512 390.632 65.0039C390.537 65.0999 390.48 65.2269 390.472 65.3615C390.463 65.4961 390.504 65.6293 390.585 65.7366C390.667 65.8439 390.785 65.9181 390.917 65.9456C391.049 65.973 391.186 65.9519 391.304 65.8861C391.886 65.5045 392.55 65.2674 393.242 65.1943C393.933 65.1212 394.633 65.2144 395.281 65.466C395.354 65.4925 395.431 65.5037 395.508 65.4988C395.585 65.494 395.661 65.4733 395.729 65.438Z" fill="#929596"/>
<path d="M425.01 77.411C425.627 84.8328 427.461 98.4161 431.844 101.553C431.844 101.553 430.808 110.473 415.04 112.756C397.76 115.304 405.518 105.39 405.518 105.39C414.606 101.749 413.332 94.7893 410.727 88.4597L417.393 80.8138C419.955 77.9851 424.674 73.6161 425.01 77.411Z" fill="#FFC3BD"/>
<path d="M437.487 105.18C438.887 103.905 436.087 98.8082 434.364 98.0941C429.855 96.2036 411.412 98.0941 404.481 104.046C403.906 105.03 403.558 106.131 403.464 107.267C403.369 108.404 403.53 109.547 403.935 110.613L437.487 105.18Z" fill="white"/>
<path d="M496.216 479.492C495.76 479.699 495.268 479.813 494.768 479.828C494.268 479.842 493.77 479.757 493.303 479.576C493.119 479.43 492.983 479.23 492.916 479.005C492.848 478.78 492.851 478.539 492.925 478.315C492.962 478.132 493.039 477.96 493.15 477.81C493.262 477.66 493.405 477.536 493.569 477.447C495.082 476.565 498.82 477.727 498.974 477.783C499.026 477.797 499.072 477.825 499.107 477.865C499.142 477.905 499.164 477.955 499.171 478.007C499.178 478.063 499.168 478.119 499.143 478.169C499.118 478.219 499.079 478.26 499.031 478.287C498.136 478.783 497.192 479.187 496.216 479.492ZM494.171 477.783L493.849 477.923C493.754 477.975 493.67 478.047 493.605 478.134C493.54 478.221 493.494 478.321 493.471 478.427C493.373 478.932 493.569 479.086 493.625 479.128C494.297 479.604 496.58 478.918 498.162 478.119C496.873 477.715 495.51 477.6 494.171 477.783Z" fill="#EBEBEB"/>
<path d="M498.978 478.301C498.932 478.315 498.883 478.315 498.838 478.301C497.437 478.021 494.511 476.271 494.357 474.955C494.335 474.747 494.385 474.539 494.5 474.365C494.615 474.191 494.787 474.063 494.987 474.002C495.181 473.916 495.391 473.871 495.603 473.871C495.815 473.871 496.025 473.916 496.219 474.002C497.843 474.674 499.104 477.811 499.146 477.937C499.173 477.979 499.188 478.027 499.188 478.077C499.188 478.127 499.173 478.176 499.146 478.217C499.126 478.243 499.101 478.265 499.072 478.279C499.042 478.294 499.01 478.301 498.978 478.301ZM495.337 474.478C495.296 474.466 495.252 474.466 495.211 474.478C494.889 474.618 494.903 474.787 494.917 474.857C495.001 475.641 496.989 477.055 498.404 477.573C497.983 476.663 497.003 474.899 496.009 474.478C495.793 474.395 495.553 474.395 495.337 474.478Z" fill="#EBEBEB"/>
<path d="M414.143 494.531C412.645 494.531 411.203 494.321 410.712 493.649C410.587 493.473 410.52 493.263 410.52 493.047C410.52 492.831 410.587 492.621 410.712 492.445C410.806 492.283 410.931 492.141 411.08 492.028C411.229 491.915 411.399 491.833 411.581 491.787C413.527 491.269 417.616 493.593 417.784 493.691C417.836 493.716 417.879 493.757 417.905 493.808C417.932 493.859 417.941 493.918 417.932 493.975C417.922 494.032 417.894 494.084 417.853 494.124C417.811 494.163 417.757 494.189 417.7 494.195C416.527 494.414 415.337 494.527 414.143 494.531ZM412.295 492.263C412.115 492.256 411.935 492.279 411.763 492.333C411.538 492.383 411.342 492.519 411.217 492.711C411.021 493.061 411.091 493.229 411.217 493.327C411.763 494.083 414.717 494.097 416.818 493.789C415.423 492.993 413.887 492.475 412.295 492.263Z" fill="#EBEBEB"/>
<path d="M417.673 494.209H417.561C416.16 493.579 413.36 491.045 413.57 489.728C413.57 489.42 413.85 489.028 414.606 488.958C414.88 488.928 415.156 488.954 415.419 489.036C415.682 489.118 415.925 489.254 416.132 489.434C417.631 490.653 417.939 493.803 417.953 493.929C417.961 493.978 417.954 494.027 417.934 494.072C417.914 494.117 417.882 494.155 417.841 494.181C417.789 494.209 417.73 494.219 417.673 494.209ZM414.872 489.476H414.704C414.2 489.476 414.172 489.728 414.158 489.784C414.032 490.583 415.936 492.585 417.365 493.439C417.243 492.103 416.704 490.839 415.824 489.826C415.562 489.595 415.222 489.47 414.872 489.476Z" fill="#EBEBEB"/>
<path d="M430.527 493.929H418.834L417.672 466.875H429.365L430.527 493.929Z" fill="#FFC3BD"/>
<path d="M512.658 475.459L501.89 479.17L490.715 453.669L501.483 449.958L512.658 475.459Z" fill="#FFC3BD"/>
<path d="M499.325 476.495L511.929 472.644C512.152 472.576 512.391 472.586 512.608 472.672C512.824 472.759 513.005 472.917 513.119 473.12L518.37 482.362C518.496 482.588 518.57 482.84 518.585 483.098C518.601 483.357 518.558 483.615 518.46 483.855C518.361 484.094 518.21 484.309 518.018 484.482C517.825 484.655 517.596 484.783 517.348 484.855C512.937 486.129 510.738 486.521 505.221 488.216C501.818 489.252 493.248 492.501 488.417 493.467C483.586 494.433 482.031 489.812 483.908 488.986C492.31 485.275 495.755 481.06 497.757 477.783C498.107 477.178 498.664 476.72 499.325 476.495Z" fill="#929596"/>
<path d="M418.916 492.571H431.673C431.904 492.574 432.128 492.655 432.308 492.799C432.488 492.944 432.615 493.144 432.668 493.369L434.978 503.76C435.036 504.01 435.035 504.271 434.977 504.521C434.919 504.772 434.805 505.006 434.643 505.205C434.481 505.405 434.276 505.565 434.043 505.674C433.81 505.782 433.555 505.837 433.298 505.832C428.691 505.762 422.095 505.482 416.256 505.482C409.492 505.482 406.649 505.86 398.709 505.86C393.92 505.86 392.59 501.015 394.592 500.567C403.737 498.565 408.204 498.354 416.102 493.481C416.939 492.927 417.913 492.612 418.916 492.571Z" fill="#929596"/>
<path d="M452.875 109.003C456.278 112.126 459.219 115.248 462.272 118.511C465.324 121.774 468.153 125.149 470.898 128.748C473.764 132.404 476.366 136.26 478.684 140.286C479.95 142.506 481.045 144.818 481.96 147.204C482.199 147.862 482.437 148.492 482.633 149.207C482.862 149.929 483.054 150.663 483.207 151.405L483.445 152.567L483.613 153.856C483.77 155.036 483.77 156.232 483.613 157.413C483.291 159.641 482.468 161.767 481.204 163.63C480.282 164.991 479.201 166.237 477.983 167.341C476.026 169.117 473.885 170.68 471.598 172.004C467.568 174.309 463.353 176.272 458.995 177.872C450.728 180.94 442.21 183.283 433.537 184.873L431.086 176.471C438.69 173.181 446.392 169.624 453.491 165.829C456.947 164.016 460.274 161.966 463.448 159.695C464.77 158.756 465.986 157.676 467.075 156.474C467.406 156.119 467.684 155.718 467.901 155.284C468.013 155.046 467.901 155.074 467.761 155.578C467.663 156.516 467.677 155.788 467.453 155.284C467.383 155.046 467.257 154.724 467.131 154.416C467.005 154.108 466.851 153.758 466.697 153.422C465.938 151.894 465.092 150.412 464.162 148.983C461.999 145.771 459.662 142.681 457.16 139.726C454.584 136.674 451.867 133.635 449.08 130.652C446.294 127.669 443.367 124.659 440.678 121.886L452.875 109.003Z" fill="#FFC3BD"/>
<path d="M434.292 175.141L423.271 178.474L430.357 190.125C430.357 190.125 436.869 187.436 438.311 181.905L434.292 175.141Z" fill="#FFC3BD"/>
<path d="M418.82 182.605L423.161 192.211L430.289 190.139L423.203 178.474L418.82 182.605Z" fill="#FFC3BD"/>
<path d="M427.053 112.168C426.003 123.37 449.697 140.707 449.697 140.707L472.509 125.093C468.547 117.787 462.757 111.635 455.704 107.238C442.625 98.8643 428.37 98.2481 427.053 112.168Z" fill="#EBEBEB"/>
<g opacity="0.3">
<path d="M427.057 112.167C426.007 123.37 449.701 140.706 449.701 140.706L472.512 125.093C468.551 117.787 462.761 111.635 455.708 107.238C442.629 98.8642 428.374 98.2481 427.057 112.167Z" fill="white"/>
</g>
<path d="M388.264 111.271C388.264 111.271 378.028 126.983 402.338 211.256L464.149 202.126C463.281 193.584 452.946 156.32 452.596 115.584C452.582 113.617 452.169 111.673 451.383 109.87C450.596 108.067 449.453 106.441 448.021 105.092C446.59 103.743 444.899 102.698 443.053 102.02C441.206 101.342 439.241 101.045 437.276 101.147C435.484 101.245 433.636 101.371 431.801 101.553C422.977 102.34 414.206 103.635 405.531 105.432C399.634 106.932 393.861 108.885 388.264 111.271Z" fill="#EBEBEB"/>
<g opacity="0.3">
<path d="M388.264 111.271C388.264 111.271 378.028 126.983 402.338 211.256L464.149 202.126C463.281 193.584 452.946 156.32 452.596 115.584C452.582 113.617 452.169 111.673 451.383 109.87C450.596 108.067 449.453 106.441 448.021 105.092C446.59 103.743 444.899 102.698 443.053 102.02C441.206 101.342 439.241 101.045 437.276 101.147C435.484 101.245 433.636 101.371 431.801 101.553C422.977 102.34 414.206 103.635 405.531 105.432C399.634 106.932 393.861 108.885 388.264 111.271Z" fill="white"/>
</g>
<path opacity="0.2" d="M386.754 138.354L386.964 138.116L401.5 139.404C403.712 148.787 395.618 161.586 391.347 167.523C389.291 157.89 387.758 148.153 386.754 138.354Z" fill="#E2E8F0"/>
<path opacity="0.2" d="M417.672 466.889L418.274 480.836H429.967L429.365 466.889H417.672Z" fill="#E2E8F0"/>
<path opacity="0.2" d="M501.483 449.958L490.715 453.669L496.484 466.819L507.253 463.108L501.483 449.958Z" fill="#E2E8F0"/>
<path d="M423.484 60.6628C426.061 71.9635 428.133 78.4471 424.198 85.8689C418.289 96.9177 403.081 95.8534 397.186 85.5469C391.878 76.2626 388.545 59.3464 398.124 51.7286C400.223 50.0432 402.717 48.9212 405.371 48.4687C408.024 48.0162 410.75 48.2481 413.289 49.1426C415.828 50.0371 418.096 51.5645 419.88 53.5803C421.665 55.5962 422.905 58.0339 423.484 60.6628Z" fill="#FFC3BD"/>
<path d="M400.784 71.7395L396.485 74.3721L396.891 59.6685C394.119 59.7875 391.385 58.9957 389.105 57.4139C390.66 55.9296 414.858 47.4575 422.406 48.9279C423.19 48.6058 424.142 47.1494 424.142 47.1494C424.142 47.1494 424.436 48.9839 423.162 49.684C424.086 49.502 426.397 49.9501 427.041 51.3084C425.98 51.0189 424.855 51.0828 423.834 51.4905C423.834 51.4905 432.236 52.7648 429.253 64.4157C425.906 77.2568 427.013 84.6366 427.013 84.6366C427.013 84.6366 420.767 89.4678 415.334 88.5716C409.536 82.186 401.162 74.5121 400.784 71.7395Z" fill="#929596"/>
<path d="M392.55 56.2518C385.73 56.2518 383.28 52.919 381.529 50.1183C386.431 49.6002 396.639 46.4494 404.215 45.9173C411.791 45.3851 420.095 46.7995 417.588 50.1183C415.082 53.4371 392.55 56.2518 392.55 56.2518Z" fill="#929596"/>
<path d="M394.049 53.213C388.448 52.4288 382.986 47.1495 387.187 42.0943C388.742 45.8052 399.23 45.3711 406.68 43.8167C416.482 41.7722 423.274 45.077 419.801 51.7567C417.897 55.4116 394.049 53.213 394.049 53.213Z" fill="#929596"/>
<path d="M406.835 68.3927C407.636 71.1578 407.508 74.1095 406.471 76.7948C405.07 80.3097 401.961 79.5955 400.337 76.5567C398.937 73.7561 397.872 68.6728 400.253 66.1382C402.634 63.6036 405.826 65.0739 406.835 68.3927Z" fill="#FFC3BD"/>
<path d="M424.268 208.021C424.268 208.021 434.294 293.372 441.576 326.812C449.544 363.445 488.851 463.318 488.851 463.318L508.456 456.54C508.456 456.54 483.25 381.342 476.556 330.131C471.417 290.809 464.093 202.125 464.093 202.125L424.268 208.021Z" fill="#929596"/>
<path d="M483.84 457.044C483.742 457.044 487.859 465.446 487.859 465.446L510.754 458.01L508.066 451.177L483.84 457.044Z" fill="#EBEBEB"/>
<path opacity="0.3" d="M429.801 251.81C432.938 275.532 436.957 303.623 440.485 321.561C445.681 294.072 446.899 259.358 429.801 251.81Z" fill="#E2E8F0"/>
<path d="M402.34 211.256C402.34 211.256 394.022 291.44 395.339 327.064C396.655 364.117 413.963 478.133 413.963 478.133H433.75C433.75 478.133 430.109 366.274 430.949 329.893C431.916 290.221 446.787 204.688 446.787 204.688L402.34 211.256Z" fill="#929596"/>
<path d="M410.11 470.25C410.026 470.25 411.23 478.456 411.23 478.456H435.302L435.96 471.132L410.11 470.25Z" fill="#EBEBEB"/>
<path d="M398.501 130.96C396.316 134.433 394.103 137.556 391.807 140.763C389.51 143.969 387.102 147.064 384.651 150.145C379.656 156.395 374.243 162.299 368.449 167.817C366.881 169.218 365.438 170.618 363.744 171.892L362.512 172.886L361.896 173.377C361.672 173.559 361.573 173.657 361.111 173.993C359.724 174.982 358.2 175.765 356.588 176.317C354.092 177.17 351.481 177.642 348.844 177.718C346.614 177.792 344.38 177.694 342.165 177.424C334.065 176.362 326.164 174.126 318.709 170.786L321.132 162.384C328.296 163.234 335.512 163.58 342.725 163.42C344.32 163.337 345.91 163.164 347.486 162.902C348.674 162.728 349.827 162.369 350.903 161.838C351.239 161.656 351.421 161.474 351.379 161.432C351.337 161.39 351.561 161.25 351.687 161.124L352.163 160.689L353.101 159.807C354.362 158.687 355.552 157.329 356.784 156.096C359.207 153.492 361.616 150.817 363.898 147.974C366.181 145.132 368.491 142.275 370.732 139.334C372.972 136.393 375.143 133.411 377.327 130.428C379.512 127.445 381.64 124.309 383.657 121.41L398.501 130.96Z" fill="#FFC3BD"/>
<path d="M406.637 127.249C411.342 142.653 384.022 159.723 384.022 159.723L366.265 137.108C370.268 129.651 375.209 122.737 380.969 116.537C393.054 103.387 403.052 115.528 406.637 127.249Z" fill="#EBEBEB"/>
<g opacity="0.3">
<path d="M406.639 127.249C411.345 142.653 384.024 159.723 384.024 159.723L366.268 137.108C370.27 129.651 375.211 122.737 380.971 116.537C393.056 103.387 403.055 115.528 406.639 127.249Z" fill="white"/>
</g>
<path d="M325.251 162.902L310.869 160.269L312.382 172.704C312.382 172.704 319.859 176.905 325.279 170.338L325.251 162.902Z" fill="#FFC3BD"/>
<path d="M305.324 163.07L308.433 172.046L312.354 172.704L310.842 160.269L305.324 163.07Z" fill="#FFC3BD"/>
</svg>
